# xmcd CD database file
# Copyright (C) 1993-1996 Ti Kan
#
# Track frame offsets:
# 150
# 12075
# 25650
# 35175
# 45250
# 52050
# 63900
# 73087
# 82750
# 97375
# 111150
# 125025
# 138000
# 151625
# 164750
# 178000
# 190937
# 202625
# 216400
# 230637
# 244825
# 257900
# 271575
# 284900
# 299225
# 311125
#
# Disc length: 4306 seconds
#
# Revision: 0
# Processed by: cddbd v1.4PL0 Copyright (c) Steve Scherf et al.
# Submitted via: inCDius 1.1b5
#
DISCID=8b10d01a
DTITLE=Ernest Tubb - Walking The Floor Over You - Disc 7
DYEAR=1996
DGENRE=Country
TTITLE0=I'll Have To Live And Learn
TTITLE1=National Lament
TTITLE2=Tweedle O'twill
TTITLE3=There's A Rainbow On The Rio Colorado
TTITLE4=Action Speaks Louder Than Words
TTITLE5=Left All Alone
TTITLE6=Two More Years (And I'll Be Free)
TTITLE7=Trailing Home To Mother
TTITLE8=It's Been So Long Darling
TTITLE9=Should I Come Back Home To You
TTITLE10=There's A Little Bit Of Everthing In Texas
TTITLE11=Darling, What More Can I Do
TTITLE12=It Just Don't Matter Now
TTITLE13=I'm Beginning To Forget You
TTITLE14=When Love Turns To Hate
TTITLE15=You'll Want Me Back (But I Won't Care)
TTITLE16=There's Gonna Be Some Changes Made Around Here
TTITLE17=Youu Were Only Teasing Me
TTITLE18=I'm Free At Last
TTITLE19=Heart Of Stone
TTITLE20=Those Simple Things Are Worth A Million Now
TTITLE21=Filipino Baby
TTITLE22=Drivin' Nails In My Coffin
TTITLE23=Rainbow At Midnight
TTITLE24=I Don't Blame You
TTITLE25=I'll Have To Live And Learn
EXTD=
EXTT0=
EXTT1=
EXTT2=
EXTT3=
EXTT4=
EXTT5=
EXTT6=
EXTT7=
EXTT8=
EXTT9=
EXTT10=
EXTT11=
EXTT12=
EXTT13=
EXTT14=
EXTT15=
EXTT16=
EXTT17=
EXTT18=
EXTT19=
EXTT20=
EXTT21=
EXTT22=
EXTT23=
EXTT24=
EXTT25=
PLAYORDER=
